<svg width="447" height="836" viewBox="0 0 447 836" fill="none" xmlns="http://www.w3.org/2000/svg">
<g filter="url(#filter0_d_16_3)">
<rect x="6" y="2" width="360" height="760" rx="64" fill="#C4C4C4"/>
<rect y="150" width="18" height="59" fill="black"/>
<rect x="369" y="151" width="18" height="59" fill="black"/>
<rect y="218" width="18" height="59" fill="black"/>
<g filter="url(#filter1_ii_16_3)">
<rect x="6" y="2" width="376" height="776" rx="64" fill="white"/>
</g>
<rect x="11" y="7" width="366" height="766" rx="59" stroke="#050505" stroke-width="10"/>
<circle cx="322" cy="36" r="9" fill="black"/>
<circle cx="322" cy="36" r="8.5" stroke="white" stroke-opacity="0.2"/>
</g>
<g filter="url(#filter2_d_16_3)">
<rect x="38" y="586" width="180" height="50" fill="black"/>
</g>
<path d="M80.9156 611.322H83.1568C83.1568 611.85 83.1187 612.304 83.0425 612.685C82.9664 613.06 82.8375 613.399 82.6558 613.704C82.4742 614.003 82.2164 614.308 81.8824 614.618C81.6129 614.87 81.3697 615.11 81.1529 615.339C80.942 615.562 80.772 615.802 80.6431 616.06C80.5201 616.312 80.4586 616.604 80.4586 616.938C80.4586 617.261 80.5142 617.53 80.6255 617.747C80.7369 617.964 80.8951 618.122 81.1002 618.222C81.3052 618.327 81.5455 618.38 81.8209 618.38C82.0904 618.38 82.3365 618.324 82.5591 618.213C82.7818 618.107 82.9605 617.94 83.0953 617.712C83.2359 617.483 83.3091 617.19 83.315 616.833H85.855C85.8433 617.636 85.6587 618.301 85.3013 618.828C84.9498 619.355 84.4752 619.745 83.8775 619.997C83.2798 620.255 82.6089 620.384 81.8648 620.384C81.0445 620.384 80.3384 620.252 79.7466 619.988C79.1607 619.725 78.7095 619.338 78.3931 618.828C78.0767 618.318 77.9185 617.691 77.9185 616.947C77.9185 616.432 78.0211 615.972 78.2261 615.567C78.4371 615.157 78.7095 614.776 79.0435 614.425C79.3834 614.073 79.7437 613.722 80.1246 613.37C80.3472 613.165 80.5142 612.966 80.6255 612.772C80.7369 612.573 80.813 612.356 80.8541 612.122C80.8951 611.888 80.9156 611.621 80.9156 611.322ZM83.4908 608.615C83.4908 608.984 83.3589 609.295 83.0953 609.547C82.8375 609.793 82.4947 609.916 82.067 609.916C81.6334 609.916 81.2877 609.793 81.0298 609.547C80.772 609.295 80.6431 608.984 80.6431 608.615C80.6431 608.246 80.772 607.936 81.0298 607.684C81.2877 607.432 81.6334 607.306 82.067 607.306C82.4947 607.306 82.8375 607.432 83.0953 607.684C83.3589 607.936 83.4908 608.246 83.4908 608.615ZM96.1161 609.415V611.472H89.4364V609.415H96.1161ZM90.2186 604.203V617H87.5819V604.203H90.2186ZM97.997 604.203V617H95.369V604.203H97.997ZM105.446 614.855V610.619C105.446 610.314 105.396 610.054 105.296 609.837C105.196 609.614 105.041 609.441 104.83 609.318C104.625 609.195 104.359 609.134 104.03 609.134C103.749 609.134 103.506 609.184 103.301 609.283C103.096 609.377 102.938 609.515 102.826 609.696C102.715 609.872 102.659 610.08 102.659 610.32H100.128C100.128 609.916 100.222 609.532 100.409 609.169C100.597 608.806 100.869 608.486 101.227 608.211C101.584 607.93 102.009 607.71 102.501 607.552C102.999 607.394 103.556 607.314 104.171 607.314C104.909 607.314 105.566 607.438 106.14 607.684C106.714 607.93 107.165 608.299 107.493 608.791C107.827 609.283 107.994 609.898 107.994 610.637V614.706C107.994 615.228 108.027 615.655 108.091 615.989C108.155 616.317 108.249 616.604 108.372 616.851V617H105.815C105.692 616.742 105.598 616.42 105.533 616.033C105.475 615.641 105.446 615.248 105.446 614.855ZM105.779 611.208L105.797 612.641H104.382C104.048 612.641 103.758 612.679 103.512 612.755C103.266 612.831 103.064 612.939 102.905 613.08C102.747 613.215 102.63 613.373 102.554 613.555C102.484 613.736 102.448 613.936 102.448 614.152C102.448 614.369 102.498 614.565 102.598 614.741C102.697 614.911 102.841 615.046 103.029 615.146C103.216 615.239 103.436 615.286 103.688 615.286C104.069 615.286 104.4 615.21 104.681 615.058C104.962 614.905 105.179 614.718 105.331 614.495C105.489 614.272 105.571 614.062 105.577 613.862L106.245 614.935C106.152 615.175 106.023 615.424 105.859 615.682C105.7 615.939 105.498 616.183 105.252 616.411C105.006 616.634 104.71 616.818 104.364 616.965C104.019 617.105 103.609 617.176 103.134 617.176C102.53 617.176 101.983 617.056 101.49 616.815C101.004 616.569 100.617 616.232 100.33 615.805C100.049 615.371 99.9084 614.879 99.9084 614.328C99.9084 613.83 100.002 613.388 100.19 613.001C100.377 612.614 100.653 612.289 101.016 612.025C101.385 611.756 101.845 611.554 102.396 611.419C102.946 611.278 103.585 611.208 104.312 611.208H105.779ZM110.126 603.5H112.657V614.82L112.402 617H110.126V603.5ZM118.677 612.148V612.333C118.677 613.042 118.601 613.692 118.449 614.284C118.302 614.876 118.074 615.389 117.763 615.822C117.453 616.25 117.066 616.584 116.603 616.824C116.146 617.059 115.607 617.176 114.986 617.176C114.406 617.176 113.902 617.059 113.474 616.824C113.052 616.59 112.698 616.259 112.411 615.831C112.124 615.403 111.892 614.902 111.716 614.328C111.541 613.754 111.409 613.127 111.321 612.447V612.043C111.409 611.363 111.541 610.736 111.716 610.162C111.892 609.588 112.124 609.087 112.411 608.659C112.698 608.231 113.052 607.9 113.474 607.666C113.896 607.432 114.394 607.314 114.968 607.314C115.595 607.314 116.14 607.435 116.603 607.675C117.072 607.909 117.459 608.243 117.763 608.677C118.074 609.104 118.302 609.614 118.449 610.206C118.601 610.792 118.677 611.439 118.677 612.148ZM116.146 612.333V612.148C116.146 611.762 116.117 611.398 116.058 611.059C116.005 610.713 115.912 610.411 115.777 610.153C115.642 609.89 115.458 609.682 115.223 609.529C114.995 609.377 114.699 609.301 114.335 609.301C113.99 609.301 113.697 609.359 113.457 609.477C113.216 609.594 113.017 609.758 112.859 609.969C112.707 610.18 112.592 610.432 112.516 610.725C112.44 611.012 112.393 611.328 112.376 611.674V612.825C112.393 613.288 112.469 613.698 112.604 614.056C112.745 614.407 112.956 614.686 113.237 614.891C113.524 615.09 113.896 615.189 114.353 615.189C114.71 615.189 115.006 615.119 115.241 614.979C115.475 614.838 115.657 614.639 115.786 614.381C115.92 614.123 116.014 613.821 116.067 613.476C116.12 613.124 116.146 612.743 116.146 612.333ZM123.102 603.5V617H120.562V603.5H123.102ZM130.507 614.855V610.619C130.507 610.314 130.457 610.054 130.358 609.837C130.258 609.614 130.103 609.441 129.892 609.318C129.687 609.195 129.42 609.134 129.092 609.134C128.811 609.134 128.568 609.184 128.362 609.283C128.157 609.377 127.999 609.515 127.888 609.696C127.777 609.872 127.721 610.08 127.721 610.32H125.19C125.19 609.916 125.283 609.532 125.471 609.169C125.658 608.806 125.931 608.486 126.288 608.211C126.646 607.93 127.07 607.71 127.563 607.552C128.061 607.394 128.617 607.314 129.233 607.314C129.971 607.314 130.627 607.438 131.201 607.684C131.776 607.93 132.227 608.299 132.555 608.791C132.889 609.283 133.056 609.898 133.056 610.637V614.706C133.056 615.228 133.088 615.655 133.152 615.989C133.217 616.317 133.311 616.604 133.434 616.851V617H130.876C130.753 616.742 130.659 616.42 130.595 616.033C130.536 615.641 130.507 615.248 130.507 614.855ZM130.841 611.208L130.859 612.641H129.444C129.11 612.641 128.819 612.679 128.573 612.755C128.327 612.831 128.125 612.939 127.967 613.08C127.809 613.215 127.692 613.373 127.615 613.555C127.545 613.736 127.51 613.936 127.51 614.152C127.51 614.369 127.56 614.565 127.659 614.741C127.759 614.911 127.902 615.046 128.09 615.146C128.277 615.239 128.497 615.286 128.749 615.286C129.13 615.286 129.461 615.21 129.742 615.058C130.024 614.905 130.24 614.718 130.393 614.495C130.551 614.272 130.633 614.062 130.639 613.862L131.307 614.935C131.213 615.175 131.084 615.424 130.92 615.682C130.762 615.939 130.56 616.183 130.314 616.411C130.068 616.634 129.772 616.818 129.426 616.965C129.08 617.105 128.67 617.176 128.195 617.176C127.592 617.176 127.044 617.056 126.552 616.815C126.066 616.569 125.679 616.232 125.392 615.805C125.111 615.371 124.97 614.879 124.97 614.328C124.97 613.83 125.064 613.388 125.251 613.001C125.439 612.614 125.714 612.289 126.077 612.025C126.446 611.756 126.906 611.554 127.457 611.419C128.008 611.278 128.647 611.208 129.373 611.208H130.841ZM137.718 609.459V617H135.178V607.49H137.56L137.718 609.459ZM137.367 611.911H136.664C136.664 611.249 136.743 610.64 136.901 610.083C137.065 609.521 137.302 609.034 137.613 608.624C137.929 608.208 138.319 607.886 138.782 607.657C139.245 607.429 139.781 607.314 140.39 607.314C140.812 607.314 141.199 607.379 141.55 607.508C141.902 607.631 142.204 607.827 142.456 608.097C142.713 608.36 142.913 608.706 143.053 609.134C143.194 609.556 143.264 610.062 143.264 610.654V617H140.733V610.936C140.733 610.502 140.674 610.168 140.557 609.934C140.44 609.699 140.273 609.535 140.056 609.441C139.845 609.348 139.59 609.301 139.291 609.301C138.963 609.301 138.676 609.368 138.43 609.503C138.19 609.638 137.991 609.825 137.833 610.065C137.674 610.3 137.557 610.575 137.481 610.892C137.405 611.208 137.367 611.548 137.367 611.911ZM143.027 611.621L142.122 611.735C142.122 611.114 142.198 610.537 142.35 610.004C142.508 609.471 142.74 609.002 143.044 608.598C143.355 608.193 143.739 607.88 144.196 607.657C144.653 607.429 145.18 607.314 145.778 607.314C146.235 607.314 146.651 607.382 147.026 607.517C147.401 607.646 147.72 607.854 147.984 608.141C148.253 608.422 148.458 608.791 148.599 609.248C148.746 609.705 148.819 610.265 148.819 610.927V617H146.279V610.927C146.279 610.487 146.22 610.153 146.103 609.925C145.992 609.69 145.828 609.529 145.611 609.441C145.4 609.348 145.148 609.301 144.855 609.301C144.55 609.301 144.284 609.362 144.055 609.485C143.827 609.603 143.636 609.767 143.484 609.978C143.332 610.188 143.217 610.435 143.141 610.716C143.065 610.991 143.027 611.293 143.027 611.621ZM150.554 612.342V612.157C150.554 611.46 150.654 610.818 150.853 610.232C151.053 609.641 151.343 609.128 151.723 608.694C152.104 608.261 152.573 607.924 153.13 607.684C153.686 607.438 154.325 607.314 155.046 607.314C155.766 607.314 156.408 607.438 156.971 607.684C157.533 607.924 158.005 608.261 158.386 608.694C158.772 609.128 159.065 609.641 159.264 610.232C159.464 610.818 159.563 611.46 159.563 612.157V612.342C159.563 613.033 159.464 613.675 159.264 614.267C159.065 614.853 158.772 615.365 158.386 615.805C158.005 616.238 157.536 616.575 156.979 616.815C156.423 617.056 155.784 617.176 155.063 617.176C154.343 617.176 153.701 617.056 153.138 616.815C152.582 616.575 152.11 616.238 151.723 615.805C151.343 615.365 151.053 614.853 150.853 614.267C150.654 613.675 150.554 613.033 150.554 612.342ZM153.086 612.157V612.342C153.086 612.74 153.121 613.112 153.191 613.458C153.262 613.804 153.373 614.108 153.525 614.372C153.683 614.63 153.888 614.832 154.14 614.979C154.392 615.125 154.7 615.198 155.063 615.198C155.415 615.198 155.717 615.125 155.969 614.979C156.221 614.832 156.423 614.63 156.575 614.372C156.727 614.108 156.839 613.804 156.909 613.458C156.985 613.112 157.023 612.74 157.023 612.342V612.157C157.023 611.771 156.985 611.407 156.909 611.067C156.839 610.722 156.724 610.417 156.566 610.153C156.414 609.884 156.212 609.673 155.96 609.521C155.708 609.368 155.403 609.292 155.046 609.292C154.688 609.292 154.384 609.368 154.132 609.521C153.886 609.673 153.683 609.884 153.525 610.153C153.373 610.417 153.262 610.722 153.191 611.067C153.121 611.407 153.086 611.771 153.086 612.157ZM166.441 614.372C166.441 614.19 166.388 614.026 166.282 613.88C166.177 613.733 165.981 613.599 165.693 613.476C165.412 613.347 165.005 613.229 164.472 613.124C163.991 613.019 163.543 612.887 163.127 612.729C162.717 612.564 162.359 612.368 162.055 612.14C161.756 611.911 161.522 611.642 161.352 611.331C161.182 611.015 161.097 610.654 161.097 610.25C161.097 609.852 161.182 609.477 161.352 609.125C161.527 608.773 161.776 608.463 162.099 608.193C162.427 607.918 162.825 607.704 163.294 607.552C163.769 607.394 164.302 607.314 164.894 607.314C165.72 607.314 166.429 607.446 167.021 607.71C167.618 607.974 168.075 608.337 168.392 608.8C168.714 609.257 168.875 609.778 168.875 610.364H166.344C166.344 610.118 166.291 609.898 166.186 609.705C166.086 609.506 165.928 609.351 165.711 609.239C165.5 609.122 165.225 609.063 164.885 609.063C164.604 609.063 164.36 609.113 164.155 609.213C163.95 609.307 163.792 609.436 163.681 609.6C163.575 609.758 163.523 609.934 163.523 610.127C163.523 610.273 163.552 610.405 163.61 610.522C163.675 610.634 163.777 610.736 163.918 610.83C164.059 610.924 164.24 611.012 164.463 611.094C164.692 611.17 164.973 611.24 165.307 611.305C165.992 611.445 166.605 611.63 167.144 611.858C167.683 612.081 168.11 612.386 168.427 612.772C168.743 613.153 168.901 613.654 168.901 614.275C168.901 614.697 168.808 615.084 168.62 615.436C168.433 615.787 168.163 616.095 167.812 616.358C167.46 616.616 167.038 616.818 166.546 616.965C166.06 617.105 165.512 617.176 164.902 617.176C164.018 617.176 163.268 617.018 162.652 616.701C162.043 616.385 161.58 615.983 161.264 615.497C160.953 615.005 160.798 614.501 160.798 613.985H163.197C163.209 614.331 163.297 614.609 163.461 614.82C163.631 615.031 163.845 615.184 164.103 615.277C164.366 615.371 164.651 615.418 164.955 615.418C165.283 615.418 165.556 615.374 165.773 615.286C165.989 615.192 166.153 615.069 166.265 614.917C166.382 614.759 166.441 614.577 166.441 614.372ZM175.04 613.089H172.799C172.805 612.562 172.846 612.107 172.922 611.727C173.004 611.34 173.142 610.991 173.335 610.681C173.535 610.37 173.798 610.062 174.126 609.758C174.402 609.512 174.642 609.277 174.847 609.055C175.052 608.832 175.213 608.604 175.331 608.369C175.448 608.129 175.506 607.862 175.506 607.569C175.506 607.229 175.454 606.948 175.348 606.726C175.248 606.497 175.096 606.324 174.891 606.207C174.692 606.09 174.44 606.031 174.135 606.031C173.883 606.031 173.649 606.087 173.432 606.198C173.215 606.304 173.037 606.468 172.896 606.69C172.761 606.913 172.691 607.206 172.685 607.569H170.136C170.154 606.767 170.338 606.104 170.69 605.583C171.047 605.056 171.525 604.666 172.122 604.414C172.72 604.156 173.391 604.027 174.135 604.027C174.956 604.027 175.659 604.162 176.245 604.432C176.831 604.695 177.279 605.085 177.589 605.601C177.9 606.11 178.055 606.731 178.055 607.464C178.055 607.974 177.956 608.428 177.756 608.826C177.557 609.219 177.296 609.585 176.974 609.925C176.652 610.265 176.297 610.616 175.911 610.979C175.577 611.278 175.348 611.592 175.225 611.92C175.108 612.248 175.046 612.638 175.04 613.089ZM172.536 615.805C172.536 615.43 172.664 615.119 172.922 614.873C173.18 614.621 173.526 614.495 173.959 614.495C174.387 614.495 174.73 614.621 174.988 614.873C175.251 615.119 175.383 615.43 175.383 615.805C175.383 616.168 175.251 616.476 174.988 616.728C174.73 616.979 174.387 617.105 173.959 617.105C173.526 617.105 173.18 616.979 172.922 616.728C172.664 616.476 172.536 616.168 172.536 615.805Z" fill="white"/>
<path d="M46.5166 271H40.3994C40.2236 271 40.1357 270.912 40.1357 270.736L40.1885 233.638C40.1885 233.497 40.2588 233.427 40.3994 233.427H46.4639C46.6045 233.427 46.6748 233.497 46.6748 233.638L46.7275 270.736C46.7275 270.912 46.6572 271 46.5166 271ZM75.4414 270.947L65.7646 271C65.5889 271 65.501 270.912 65.501 270.736L65.6064 233.638C65.6064 233.497 65.6768 233.427 65.8174 233.427L75.916 233.374C77.9199 233.321 79.7305 233.778 81.3477 234.745C82.9824 235.712 84.2832 237.021 85.25 238.674C86.2344 240.309 86.7266 242.119 86.7266 244.105V259.609C86.7266 261.684 86.2256 263.582 85.2236 265.305C84.2041 267.01 82.8506 268.372 81.1631 269.392C79.4756 270.394 77.5684 270.912 75.4414 270.947ZM75.916 239.834L72.1455 239.887L72.0928 264.355H75.4414C76.7773 264.355 77.9023 263.89 78.8164 262.958C79.7305 262.026 80.1875 260.91 80.1875 259.609V244.053C80.1875 242.91 79.7656 241.917 78.9219 241.073C78.0781 240.212 77.0762 239.799 75.916 239.834ZM108.638 271H91.1826C91.042 271 90.9717 270.912 90.9717 270.736L91.0244 233.638C91.0244 233.497 91.0947 233.427 91.2354 233.427H108.585C108.726 233.427 108.796 233.515 108.796 233.69V239.729C108.796 239.869 108.726 239.939 108.585 239.939H97.5107V248.377H108.585C108.726 248.377 108.796 248.447 108.796 248.588L108.849 254.705C108.849 254.846 108.778 254.916 108.638 254.916H97.5107V264.355H108.638C108.778 264.355 108.849 264.443 108.849 264.619V270.789C108.849 270.93 108.778 271 108.638 271ZM122.823 271.527C120.907 271.527 119.141 271.035 117.523 270.051C115.924 269.066 114.641 267.757 113.674 266.122C112.725 264.47 112.25 262.659 112.25 260.69V258.212C112.25 258.019 112.338 257.922 112.514 257.922H118.578C118.719 257.922 118.789 258.019 118.789 258.212V260.69C118.789 261.868 119.185 262.888 119.976 263.749C120.767 264.593 121.716 265.015 122.823 265.015C123.948 265.015 124.906 264.584 125.697 263.723C126.488 262.844 126.884 261.833 126.884 260.69C126.884 259.372 126.022 258.221 124.3 257.236C124.019 257.061 123.649 256.85 123.192 256.604C122.753 256.34 122.226 256.041 121.61 255.707C120.995 255.373 120.397 255.048 119.817 254.731C119.237 254.397 118.675 254.081 118.13 253.782C116.161 252.622 114.693 251.172 113.727 249.432C112.777 247.674 112.303 245.705 112.303 243.525C112.303 241.521 112.795 239.711 113.779 238.094C114.764 236.494 116.047 235.229 117.629 234.297C119.229 233.348 120.96 232.873 122.823 232.873C124.739 232.873 126.497 233.348 128.097 234.297C129.696 235.264 130.971 236.547 131.92 238.146C132.887 239.746 133.37 241.539 133.37 243.525V247.955C133.37 248.096 133.3 248.166 133.159 248.166H127.095C126.954 248.166 126.884 248.096 126.884 247.955L126.831 243.525C126.831 242.26 126.436 241.231 125.645 240.44C124.854 239.649 123.913 239.254 122.823 239.254C121.716 239.254 120.767 239.676 119.976 240.52C119.185 241.363 118.789 242.365 118.789 243.525C118.789 244.703 119.035 245.688 119.527 246.479C120.037 247.27 120.96 248.025 122.296 248.746C122.437 248.816 122.762 248.992 123.271 249.273C123.781 249.555 124.344 249.871 124.959 250.223C125.592 250.557 126.163 250.864 126.673 251.146C127.183 251.409 127.49 251.567 127.596 251.62C129.389 252.622 130.804 253.853 131.841 255.312C132.896 256.771 133.423 258.563 133.423 260.69C133.423 262.747 132.948 264.593 131.999 266.228C131.032 267.862 129.749 269.154 128.149 270.104C126.55 271.053 124.774 271.527 122.823 271.527ZM143.548 271H137.431C137.255 271 137.167 270.912 137.167 270.736L137.22 233.638C137.22 233.497 137.29 233.427 137.431 233.427H143.495C143.636 233.427 143.706 233.497 143.706 233.638L143.759 270.736C143.759 270.912 143.688 271 143.548 271ZM158.393 271.527C156.441 271.527 154.684 271.044 153.119 270.077C151.537 269.11 150.263 267.81 149.296 266.175C148.347 264.54 147.872 262.712 147.872 260.69V243.578C147.872 241.609 148.355 239.816 149.322 238.199C150.271 236.564 151.546 235.264 153.146 234.297C154.745 233.312 156.494 232.82 158.393 232.82C160.379 232.82 162.172 233.295 163.771 234.244C165.371 235.211 166.637 236.503 167.568 238.12C168.518 239.737 168.992 241.557 168.992 243.578V246.057C168.992 246.197 168.904 246.268 168.729 246.268H162.664C162.523 246.268 162.453 246.197 162.453 246.057V244C162.453 242.629 162.066 241.495 161.293 240.599C160.52 239.702 159.553 239.254 158.393 239.254C157.355 239.254 156.433 239.685 155.624 240.546C154.815 241.407 154.411 242.418 154.411 243.578V260.69C154.411 261.868 154.807 262.888 155.598 263.749C156.389 264.593 157.32 265.015 158.393 265.015C159.553 265.015 160.52 264.602 161.293 263.775C162.066 262.932 162.453 261.903 162.453 260.69V258.027H158.683C158.489 258.027 158.393 257.939 158.393 257.764V251.726C158.393 251.55 158.489 251.462 158.683 251.462H168.781C168.922 251.462 168.992 251.55 168.992 251.726V260.69C168.992 262.712 168.518 264.54 167.568 266.175C166.602 267.81 165.327 269.11 163.745 270.077C162.163 271.044 160.379 271.527 158.393 271.527ZM178.695 271H173.29C173.009 271 172.868 270.877 172.868 270.631L172.815 233.849C172.815 233.567 172.956 233.427 173.237 233.427H178.115L187.238 254.705L186.975 233.849C186.975 233.567 187.133 233.427 187.449 233.427H192.802C193.013 233.427 193.118 233.567 193.118 233.849L193.171 270.684C193.171 270.895 193.083 271 192.907 271H188.161L178.801 251.119L179.196 270.578C179.196 270.859 179.029 271 178.695 271ZM210.072 270.736L216.77 233.638C216.805 233.497 216.893 233.427 217.033 233.427H224.864C225.005 233.427 225.093 233.497 225.128 233.638L231.562 270.736C231.579 270.912 231.509 271 231.351 271H225.365C225.189 271 225.093 270.912 225.075 270.736L224.495 266.781H217.139L216.559 270.736C216.541 270.912 216.453 271 216.295 271H210.283C210.143 271 210.072 270.912 210.072 270.736ZM220.646 245.846L218.22 261.007H223.414L221.199 245.846L220.883 243.842L220.646 245.846ZM240.816 271H235.411C235.13 271 234.989 270.877 234.989 270.631L234.937 233.849C234.937 233.567 235.077 233.427 235.358 233.427H240.236L249.359 254.705L249.096 233.849C249.096 233.567 249.254 233.427 249.57 233.427H254.923C255.134 233.427 255.239 233.567 255.239 233.849L255.292 270.684C255.292 270.895 255.204 271 255.028 271H250.282L240.922 251.119L241.317 270.578C241.317 270.859 241.15 271 240.816 271ZM269.926 270.947L260.249 271C260.073 271 259.985 270.912 259.985 270.736L260.091 233.638C260.091 233.497 260.161 233.427 260.302 233.427L270.4 233.374C272.404 233.321 274.215 233.778 275.832 234.745C277.467 235.712 278.768 237.021 279.734 238.674C280.719 240.309 281.211 242.119 281.211 244.105V259.609C281.211 261.684 280.71 263.582 279.708 265.305C278.688 267.01 277.335 268.372 275.647 269.392C273.96 270.394 272.053 270.912 269.926 270.947ZM270.4 239.834L266.63 239.887L266.577 264.355H269.926C271.262 264.355 272.387 263.89 273.301 262.958C274.215 262.026 274.672 260.91 274.672 259.609V244.053C274.672 242.91 274.25 241.917 273.406 241.073C272.562 240.212 271.561 239.799 270.4 239.834ZM50.0762 325.947L40.3994 326C40.2236 326 40.1357 325.912 40.1357 325.736L40.2412 288.638C40.2412 288.497 40.3115 288.427 40.4521 288.427L50.5508 288.374C52.5547 288.321 54.3652 288.778 55.9824 289.745C57.6172 290.712 58.918 292.021 59.8848 293.674C60.8691 295.309 61.3613 297.119 61.3613 299.105V314.609C61.3613 316.684 60.8604 318.582 59.8584 320.305C58.8389 322.01 57.4854 323.372 55.7979 324.392C54.1104 325.394 52.2031 325.912 50.0762 325.947ZM50.5508 294.834L46.7803 294.887L46.7275 319.355H50.0762C51.4121 319.355 52.5371 318.89 53.4512 317.958C54.3652 317.026 54.8223 315.91 54.8223 314.609V299.053C54.8223 297.91 54.4004 296.917 53.5566 296.073C52.7129 295.212 51.7109 294.799 50.5508 294.834ZM83.2725 326H65.8174C65.6768 326 65.6064 325.912 65.6064 325.736L65.6592 288.638C65.6592 288.497 65.7295 288.427 65.8701 288.427H83.2197C83.3604 288.427 83.4307 288.515 83.4307 288.69V294.729C83.4307 294.869 83.3604 294.939 83.2197 294.939H72.1455V303.377H83.2197C83.3604 303.377 83.4307 303.447 83.4307 303.588L83.4834 309.705C83.4834 309.846 83.4131 309.916 83.2725 309.916H72.1455V319.355H83.2725C83.4131 319.355 83.4834 319.443 83.4834 319.619V325.789C83.4834 325.93 83.4131 326 83.2725 326ZM100.886 326H94.3467C94.1885 326 94.1006 325.912 94.083 325.736L86.6211 288.638C86.5859 288.497 86.6562 288.427 86.832 288.427H92.9492C93.0898 288.427 93.1777 288.497 93.2129 288.638L97.6426 313.37L101.967 288.638C102.002 288.497 102.09 288.427 102.23 288.427H108.269C108.462 288.427 108.532 288.497 108.479 288.638L101.149 325.736C101.132 325.912 101.044 326 100.886 326ZM129.31 326H111.854C111.714 326 111.644 325.912 111.644 325.736L111.696 288.638C111.696 288.497 111.767 288.427 111.907 288.427H129.257C129.397 288.427 129.468 288.515 129.468 288.69V294.729C129.468 294.869 129.397 294.939 129.257 294.939H118.183V303.377H129.257C129.397 303.377 129.468 303.447 129.468 303.588L129.521 309.705C129.521 309.846 129.45 309.916 129.31 309.916H118.183V319.355H129.31C129.45 319.355 129.521 319.443 129.521 319.619V325.789C129.521 325.93 129.45 326 129.31 326ZM151.985 326H134.53C134.39 326 134.319 325.912 134.319 325.736L134.372 288.69C134.372 288.515 134.46 288.427 134.636 288.427H140.647C140.823 288.427 140.911 288.515 140.911 288.69L140.858 319.355H151.985C152.161 319.355 152.249 319.443 152.249 319.619V325.736C152.249 325.912 152.161 326 151.985 326ZM165.775 326.527C163.859 326.527 162.093 326.035 160.476 325.051C158.876 324.066 157.584 322.757 156.6 321.122C155.633 319.47 155.149 317.659 155.149 315.69L155.202 298.578C155.202 296.574 155.686 294.772 156.652 293.173C157.602 291.556 158.885 290.264 160.502 289.297C162.119 288.312 163.877 287.82 165.775 287.82C167.744 287.82 169.511 288.304 171.075 289.271C172.657 290.237 173.923 291.538 174.872 293.173C175.839 294.79 176.322 296.592 176.322 298.578L176.375 315.69C176.375 317.659 175.9 319.461 174.951 321.096C173.984 322.748 172.701 324.066 171.102 325.051C169.502 326.035 167.727 326.527 165.775 326.527ZM165.775 320.015C166.865 320.015 167.814 319.575 168.623 318.696C169.432 317.8 169.836 316.798 169.836 315.69L169.783 298.578C169.783 297.383 169.405 296.372 168.649 295.546C167.894 294.72 166.936 294.307 165.775 294.307C164.668 294.307 163.719 294.711 162.928 295.52C162.137 296.328 161.741 297.348 161.741 298.578V315.69C161.741 316.868 162.137 317.888 162.928 318.749C163.719 319.593 164.668 320.015 165.775 320.015ZM186.79 326H180.726C180.55 326 180.462 325.912 180.462 325.736L180.567 288.638C180.567 288.497 180.638 288.427 180.778 288.427H191.167C194.472 288.427 197.082 289.438 198.998 291.459C200.932 293.463 201.898 296.196 201.898 299.659C201.898 302.19 201.397 304.396 200.396 306.277C199.376 308.141 198.058 309.582 196.44 310.602C194.823 311.621 193.065 312.131 191.167 312.131H187.054V325.736C187.054 325.912 186.966 326 186.79 326ZM191.167 294.834L187.054 294.887V305.592H191.167C192.31 305.592 193.303 305.047 194.146 303.957C194.99 302.85 195.412 301.417 195.412 299.659C195.412 298.253 195.034 297.102 194.278 296.205C193.522 295.291 192.485 294.834 191.167 294.834ZM57.8018 381H40.3467C40.2061 381 40.1357 380.912 40.1357 380.736L40.1885 343.638C40.1885 343.497 40.2588 343.427 40.3994 343.427H57.749C57.8896 343.427 57.96 343.515 57.96 343.69V349.729C57.96 349.869 57.8896 349.939 57.749 349.939H46.6748V358.377H57.749C57.8896 358.377 57.96 358.447 57.96 358.588L58.0127 364.705C58.0127 364.846 57.9424 364.916 57.8018 364.916H46.6748V374.355H57.8018C57.9424 374.355 58.0127 374.443 58.0127 374.619V380.789C58.0127 380.93 57.9424 381 57.8018 381ZM67.2148 381H61.1504C61.0273 381 60.9746 380.912 60.9922 380.736L67.1621 361.462L61.0977 343.638C61.0625 343.497 61.1152 343.427 61.2559 343.427H67.3203C67.4961 343.427 67.6016 343.497 67.6367 343.638L71.249 356.479L74.9141 343.638C74.9492 343.497 75.0635 343.427 75.2568 343.427H81.2422C81.3828 343.427 81.4355 343.497 81.4004 343.638L75.3623 361.409L81.4531 380.736C81.5234 380.912 81.4707 381 81.2949 381H75.2568C75.0986 381 74.9844 380.912 74.9141 380.736L71.249 366.788L67.5312 380.736C67.5137 380.912 67.4082 381 67.2148 381ZM90.9717 381H84.9072C84.7314 381 84.6436 380.912 84.6436 380.736L84.749 343.638C84.749 343.497 84.8193 343.427 84.96 343.427H95.3486C98.6533 343.427 101.264 344.438 103.18 346.459C105.113 348.463 106.08 351.196 106.08 354.659C106.08 357.19 105.579 359.396 104.577 361.277C103.558 363.141 102.239 364.582 100.622 365.602C99.0049 366.621 97.2471 367.131 95.3486 367.131H91.2354V380.736C91.2354 380.912 91.1475 381 90.9717 381ZM95.3486 349.834L91.2354 349.887V360.592H95.3486C96.4912 360.592 97.4844 360.047 98.3281 358.957C99.1719 357.85 99.5938 356.417 99.5938 354.659C99.5938 353.253 99.2158 352.102 98.46 351.205C97.7041 350.291 96.667 349.834 95.3486 349.834ZM127.411 381H109.956C109.815 381 109.745 380.912 109.745 380.736L109.798 343.638C109.798 343.497 109.868 343.427 110.009 343.427H127.358C127.499 343.427 127.569 343.515 127.569 343.69V349.729C127.569 349.869 127.499 349.939 127.358 349.939H116.284V358.377H127.358C127.499 358.377 127.569 358.447 127.569 358.588L127.622 364.705C127.622 364.846 127.552 364.916 127.411 364.916H116.284V374.355H127.411C127.552 374.355 127.622 374.443 127.622 374.619V380.789C127.622 380.93 127.552 381 127.411 381ZM138.749 381H132.632C132.491 381 132.421 380.912 132.421 380.736L132.526 343.638C132.526 343.497 132.597 343.427 132.737 343.427H143.653C145.604 343.427 147.397 343.901 149.032 344.851C150.667 345.8 151.968 347.074 152.935 348.674C153.919 350.273 154.411 352.084 154.411 354.105C154.411 355.424 154.209 356.619 153.805 357.691C153.4 358.764 152.926 359.669 152.381 360.407C151.854 361.146 151.37 361.69 150.931 362.042C152.882 364.204 153.857 366.744 153.857 369.662L153.91 380.736C153.91 380.912 153.822 381 153.646 381H147.529C147.389 381 147.318 380.947 147.318 380.842V369.662C147.318 368.361 146.861 367.236 145.947 366.287C145.033 365.338 143.908 364.863 142.572 364.863H139.013L138.96 380.736C138.96 380.912 138.89 381 138.749 381ZM143.653 349.887H139.013V358.377H143.653C144.761 358.377 145.745 357.964 146.606 357.138C147.485 356.312 147.925 355.301 147.925 354.105C147.925 352.963 147.503 351.979 146.659 351.152C145.815 350.309 144.813 349.887 143.653 349.887ZM164.853 381H158.735C158.56 381 158.472 380.912 158.472 380.736L158.524 343.638C158.524 343.497 158.595 343.427 158.735 343.427H164.8C164.94 343.427 165.011 343.497 165.011 343.638L165.063 380.736C165.063 380.912 164.993 381 164.853 381ZM187.476 381H170.021C169.88 381 169.81 380.912 169.81 380.736L169.862 343.638C169.862 343.497 169.933 343.427 170.073 343.427H187.423C187.563 343.427 187.634 343.515 187.634 343.69V349.729C187.634 349.869 187.563 349.939 187.423 349.939H176.349V358.377H187.423C187.563 358.377 187.634 358.447 187.634 358.588L187.687 364.705C187.687 364.846 187.616 364.916 187.476 364.916H176.349V374.355H187.476C187.616 374.355 187.687 374.443 187.687 374.619V380.789C187.687 380.93 187.616 381 187.476 381ZM198.365 381H192.96C192.679 381 192.538 380.877 192.538 380.631L192.485 343.849C192.485 343.567 192.626 343.427 192.907 343.427H197.785L206.908 364.705L206.645 343.849C206.645 343.567 206.803 343.427 207.119 343.427H212.472C212.683 343.427 212.788 343.567 212.788 343.849L212.841 380.684C212.841 380.895 212.753 381 212.577 381H207.831L198.471 361.119L198.866 380.578C198.866 380.859 198.699 381 198.365 381ZM227.475 381.527C225.523 381.527 223.739 381.035 222.122 380.051C220.522 379.066 219.248 377.748 218.299 376.096C217.367 374.426 216.901 372.571 216.901 370.532L216.954 353.684C216.954 351.68 217.411 349.869 218.325 348.252C219.239 346.617 220.496 345.308 222.096 344.323C223.713 343.321 225.506 342.82 227.475 342.82C229.479 342.82 231.263 343.304 232.827 344.271C234.409 345.237 235.666 346.547 236.598 348.199C237.547 349.834 238.021 351.662 238.021 353.684V356.162C238.021 356.303 237.951 356.373 237.811 356.373H231.746C231.605 356.373 231.535 356.303 231.535 356.162V353.684C231.535 352.488 231.148 351.46 230.375 350.599C229.602 349.737 228.635 349.307 227.475 349.307C226.191 349.307 225.207 349.746 224.521 350.625C223.836 351.504 223.493 352.523 223.493 353.684V370.532C223.493 371.851 223.88 372.932 224.653 373.775C225.427 374.602 226.367 375.015 227.475 375.015C228.635 375.015 229.602 374.558 230.375 373.644C231.148 372.712 231.535 371.675 231.535 370.532V368.027C231.535 367.887 231.605 367.816 231.746 367.816H237.863C238.004 367.816 238.074 367.887 238.074 368.027V370.532C238.074 372.554 237.6 374.399 236.65 376.069C235.684 377.722 234.409 379.049 232.827 380.051C231.245 381.035 229.461 381.527 227.475 381.527ZM259.669 381H242.214C242.073 381 242.003 380.912 242.003 380.736L242.056 343.638C242.056 343.497 242.126 343.427 242.267 343.427H259.616C259.757 343.427 259.827 343.515 259.827 343.69V349.729C259.827 349.869 259.757 349.939 259.616 349.939H248.542V358.377H259.616C259.757 358.377 259.827 358.447 259.827 358.588L259.88 364.705C259.88 364.846 259.81 364.916 259.669 364.916H248.542V374.355H259.669C259.81 374.355 259.88 374.443 259.88 374.619V380.789C259.88 380.93 259.81 381 259.669 381ZM273.854 381.527C271.938 381.527 270.172 381.035 268.555 380.051C266.955 379.066 265.672 377.757 264.705 376.122C263.756 374.47 263.281 372.659 263.281 370.69V368.212C263.281 368.019 263.369 367.922 263.545 367.922H269.609C269.75 367.922 269.82 368.019 269.82 368.212V370.69C269.82 371.868 270.216 372.888 271.007 373.749C271.798 374.593 272.747 375.015 273.854 375.015C274.979 375.015 275.938 374.584 276.729 373.723C277.52 372.844 277.915 371.833 277.915 370.69C277.915 369.372 277.054 368.221 275.331 367.236C275.05 367.061 274.681 366.85 274.224 366.604C273.784 366.34 273.257 366.041 272.642 365.707C272.026 365.373 271.429 365.048 270.849 364.731C270.269 364.397 269.706 364.081 269.161 363.782C267.192 362.622 265.725 361.172 264.758 359.432C263.809 357.674 263.334 355.705 263.334 353.525C263.334 351.521 263.826 349.711 264.811 348.094C265.795 346.494 267.078 345.229 268.66 344.297C270.26 343.348 271.991 342.873 273.854 342.873C275.771 342.873 277.528 343.348 279.128 344.297C280.728 345.264 282.002 346.547 282.951 348.146C283.918 349.746 284.401 351.539 284.401 353.525V357.955C284.401 358.096 284.331 358.166 284.19 358.166H278.126C277.985 358.166 277.915 358.096 277.915 357.955L277.862 353.525C277.862 352.26 277.467 351.231 276.676 350.44C275.885 349.649 274.944 349.254 273.854 349.254C272.747 349.254 271.798 349.676 271.007 350.52C270.216 351.363 269.82 352.365 269.82 353.525C269.82 354.703 270.066 355.688 270.559 356.479C271.068 357.27 271.991 358.025 273.327 358.746C273.468 358.816 273.793 358.992 274.303 359.273C274.812 359.555 275.375 359.871 275.99 360.223C276.623 360.557 277.194 360.864 277.704 361.146C278.214 361.409 278.521 361.567 278.627 361.62C280.42 362.622 281.835 363.853 282.872 365.312C283.927 366.771 284.454 368.563 284.454 370.69C284.454 372.747 283.979 374.593 283.03 376.228C282.063 377.862 280.78 379.154 279.181 380.104C277.581 381.053 275.806 381.527 273.854 381.527ZM51.6582 436H45.5674C45.4092 436 45.3301 435.912 45.3301 435.736V404.939H38.3164C38.1406 404.939 38.0527 404.852 38.0527 404.676L38.1055 398.638C38.1055 398.497 38.1758 398.427 38.3164 398.427H58.8301C59.0234 398.427 59.1201 398.497 59.1201 398.638V404.676C59.1201 404.852 59.0498 404.939 58.9092 404.939H51.8164L51.8691 435.736C51.8691 435.912 51.7988 436 51.6582 436ZM68.085 436H61.9678C61.8271 436 61.7568 435.912 61.7568 435.736L61.8096 398.638C61.8096 398.497 61.8975 398.427 62.0732 398.427H68.085C68.2607 398.427 68.3486 398.497 68.3486 398.638L68.2959 413.324H76.3906V398.638C76.3906 398.497 76.4609 398.427 76.6016 398.427H82.6133C82.7891 398.427 82.877 398.497 82.877 398.638L82.9824 435.736C82.9824 435.912 82.8945 436 82.7188 436H76.6543C76.4785 436 76.3906 435.912 76.3906 435.736V419.863H68.2959V435.736C68.2959 435.912 68.2256 436 68.085 436ZM85.5664 435.736L92.2637 398.638C92.2988 398.497 92.3867 398.427 92.5273 398.427H100.358C100.499 398.427 100.587 398.497 100.622 398.638L107.056 435.736C107.073 435.912 107.003 436 106.845 436H100.859C100.684 436 100.587 435.912 100.569 435.736L99.9893 431.781H92.6328L92.0527 435.736C92.0352 435.912 91.9473 436 91.7891 436H85.7773C85.6367 436 85.5664 435.912 85.5664 435.736ZM96.1396 410.846L93.7139 426.007H98.9082L96.6934 410.846L96.377 408.842L96.1396 410.846ZM121.953 436H115.862C115.704 436 115.625 435.912 115.625 435.736V404.939H108.611C108.436 404.939 108.348 404.852 108.348 404.676L108.4 398.638C108.4 398.497 108.471 398.427 108.611 398.427H129.125C129.318 398.427 129.415 398.497 129.415 398.638V404.676C129.415 404.852 129.345 404.939 129.204 404.939H122.111L122.164 435.736C122.164 435.912 122.094 436 121.953 436ZM152.407 436H146.29C146.149 436 146.079 435.912 146.079 435.736L146.185 398.638C146.185 398.497 146.255 398.427 146.396 398.427H152.987C153.128 398.427 153.251 398.497 153.356 398.638L158.287 405.757L163.191 398.638C163.297 398.497 163.429 398.427 163.587 398.427H170.205C170.363 398.427 170.442 398.497 170.442 398.638L170.548 435.736C170.548 435.912 170.478 436 170.337 436H164.22C164.079 436 164.009 435.912 164.009 435.736L163.956 408.183L158.287 416.409L152.671 408.183L152.618 435.736C152.618 435.912 152.548 436 152.407 436ZM173.264 435.736L179.961 398.638C179.996 398.497 180.084 398.427 180.225 398.427H188.056C188.196 398.427 188.284 398.497 188.319 398.638L194.753 435.736C194.771 435.912 194.7 436 194.542 436H188.557C188.381 436 188.284 435.912 188.267 435.736L187.687 431.781H180.33L179.75 435.736C179.732 435.912 179.645 436 179.486 436H173.475C173.334 436 173.264 435.912 173.264 435.736ZM183.837 410.846L181.411 426.007H186.605L184.391 410.846L184.074 408.842L183.837 410.846ZM204.456 436H198.339C198.198 436 198.128 435.912 198.128 435.736L198.233 398.69C198.233 398.515 198.304 398.427 198.444 398.427H204.509C204.649 398.427 204.72 398.515 204.72 398.69V411.479L213.184 398.638C213.324 398.497 213.456 398.427 213.579 398.427H219.775C219.934 398.427 219.969 398.497 219.881 398.638L210.547 413.535L221.015 435.789C221.103 435.93 221.015 436 220.751 436H214.159C213.983 436 213.878 435.93 213.843 435.789L206.539 419.916L204.667 422.869V435.736C204.667 435.912 204.597 436 204.456 436ZM239.999 436H222.544C222.403 436 222.333 435.912 222.333 435.736L222.386 398.638C222.386 398.497 222.456 398.427 222.597 398.427H239.946C240.087 398.427 240.157 398.515 240.157 398.69V404.729C240.157 404.869 240.087 404.939 239.946 404.939H228.872V413.377H239.946C240.087 413.377 240.157 413.447 240.157 413.588L240.21 419.705C240.21 419.846 240.14 419.916 239.999 419.916H228.872V429.355H239.999C240.14 429.355 240.21 429.443 240.21 429.619V435.789C240.21 435.93 240.14 436 239.999 436ZM46.4639 491H40.3994C40.2236 491 40.1357 490.912 40.1357 490.736L40.2412 453.638C40.2412 453.497 40.3115 453.427 40.4521 453.427H50.8408C54.1455 453.427 56.7559 454.438 58.6719 456.459C60.6055 458.463 61.5723 461.196 61.5723 464.659C61.5723 467.19 61.0713 469.396 60.0693 471.277C59.0498 473.141 57.7314 474.582 56.1143 475.602C54.4971 476.621 52.7393 477.131 50.8408 477.131H46.7275V490.736C46.7275 490.912 46.6396 491 46.4639 491ZM50.8408 459.834L46.7275 459.887V470.592H50.8408C51.9834 470.592 52.9766 470.047 53.8203 468.957C54.6641 467.85 55.0859 466.417 55.0859 464.659C55.0859 463.253 54.708 462.102 53.9521 461.205C53.1963 460.291 52.1592 459.834 50.8408 459.834ZM82.9033 491H65.4482C65.3076 491 65.2373 490.912 65.2373 490.736L65.29 453.638C65.29 453.497 65.3604 453.427 65.501 453.427H82.8506C82.9912 453.427 83.0615 453.515 83.0615 453.69V459.729C83.0615 459.869 82.9912 459.939 82.8506 459.939H71.7764V468.377H82.8506C82.9912 468.377 83.0615 468.447 83.0615 468.588L83.1143 474.705C83.1143 474.846 83.0439 474.916 82.9033 474.916H71.7764V484.355H82.9033C83.0439 484.355 83.1143 484.443 83.1143 484.619V490.789C83.1143 490.93 83.0439 491 82.9033 491ZM97.9062 491.527C95.9902 491.527 94.2236 491.035 92.6064 490.051C91.0068 489.066 89.7148 487.757 88.7305 486.122C87.7637 484.47 87.2803 482.659 87.2803 480.69L87.333 463.578C87.333 461.574 87.8164 459.772 88.7832 458.173C89.7324 456.556 91.0156 455.264 92.6328 454.297C94.25 453.312 96.0078 452.82 97.9062 452.82C99.875 452.82 101.642 453.304 103.206 454.271C104.788 455.237 106.054 456.538 107.003 458.173C107.97 459.79 108.453 461.592 108.453 463.578L108.506 480.69C108.506 482.659 108.031 484.461 107.082 486.096C106.115 487.748 104.832 489.066 103.232 490.051C101.633 491.035 99.8574 491.527 97.9062 491.527ZM97.9062 485.015C98.9961 485.015 99.9453 484.575 100.754 483.696C101.562 482.8 101.967 481.798 101.967 480.69L101.914 463.578C101.914 462.383 101.536 461.372 100.78 460.546C100.024 459.72 99.0664 459.307 97.9062 459.307C96.7988 459.307 95.8496 459.711 95.0586 460.52C94.2676 461.328 93.8721 462.348 93.8721 463.578V480.69C93.8721 481.868 94.2676 482.888 95.0586 483.749C95.8496 484.593 96.7988 485.015 97.9062 485.015ZM118.921 491H112.856C112.681 491 112.593 490.912 112.593 490.736L112.698 453.638C112.698 453.497 112.769 453.427 112.909 453.427H123.298C126.603 453.427 129.213 454.438 131.129 456.459C133.062 458.463 134.029 461.196 134.029 464.659C134.029 467.19 133.528 469.396 132.526 471.277C131.507 473.141 130.188 474.582 128.571 475.602C126.954 476.621 125.196 477.131 123.298 477.131H119.185V490.736C119.185 490.912 119.097 491 118.921 491ZM123.298 459.834L119.185 459.887V470.592H123.298C124.44 470.592 125.434 470.047 126.277 468.957C127.121 467.85 127.543 466.417 127.543 464.659C127.543 463.253 127.165 462.102 126.409 461.205C125.653 460.291 124.616 459.834 123.298 459.834ZM155.36 491H137.905C137.765 491 137.694 490.912 137.694 490.736L137.747 453.69C137.747 453.515 137.835 453.427 138.011 453.427H144.022C144.198 453.427 144.286 453.515 144.286 453.69L144.233 484.355H155.36C155.536 484.355 155.624 484.443 155.624 484.619V490.736C155.624 490.912 155.536 491 155.36 491ZM176.823 491H159.368C159.228 491 159.157 490.912 159.157 490.736L159.21 453.638C159.21 453.497 159.28 453.427 159.421 453.427H176.771C176.911 453.427 176.981 453.515 176.981 453.69V459.729C176.981 459.869 176.911 459.939 176.771 459.939H165.696V468.377H176.771C176.911 468.377 176.981 468.447 176.981 468.588L177.034 474.705C177.034 474.846 176.964 474.916 176.823 474.916H165.696V484.355H176.823C176.964 484.355 177.034 484.443 177.034 484.619V490.789C177.034 490.93 176.964 491 176.823 491ZM192.711 450.176C192.387 450.68 191.919 451.292 191.307 452.012C190.695 452.732 190.011 453.488 189.255 454.28C188.535 455.036 187.797 455.774 187.041 456.494C186.321 457.178 185.637 457.772 184.989 458.276H181.857V457.628C182.397 456.944 182.973 456.134 183.585 455.198C184.233 454.262 184.863 453.308 185.475 452.336C186.087 451.328 186.591 450.428 186.987 449.636H192.711V450.176ZM206.196 491.527C204.28 491.527 202.514 491.035 200.896 490.051C199.297 489.066 198.014 487.757 197.047 486.122C196.098 484.47 195.623 482.659 195.623 480.69V478.212C195.623 478.019 195.711 477.922 195.887 477.922H201.951C202.092 477.922 202.162 478.019 202.162 478.212V480.69C202.162 481.868 202.558 482.888 203.349 483.749C204.14 484.593 205.089 485.015 206.196 485.015C207.321 485.015 208.279 484.584 209.07 483.723C209.861 482.844 210.257 481.833 210.257 480.69C210.257 479.372 209.396 478.221 207.673 477.236C207.392 477.061 207.022 476.85 206.565 476.604C206.126 476.34 205.599 476.041 204.983 475.707C204.368 475.373 203.771 475.048 203.19 474.731C202.61 474.397 202.048 474.081 201.503 473.782C199.534 472.622 198.066 471.172 197.1 469.432C196.15 467.674 195.676 465.705 195.676 463.525C195.676 461.521 196.168 459.711 197.152 458.094C198.137 456.494 199.42 455.229 201.002 454.297C202.602 453.348 204.333 452.873 206.196 452.873C208.112 452.873 209.87 453.348 211.47 454.297C213.069 455.264 214.344 456.547 215.293 458.146C216.26 459.746 216.743 461.539 216.743 463.525V467.955C216.743 468.096 216.673 468.166 216.532 468.166H210.468C210.327 468.166 210.257 468.096 210.257 467.955L210.204 463.525C210.204 462.26 209.809 461.231 209.018 460.44C208.227 459.649 207.286 459.254 206.196 459.254C205.089 459.254 204.14 459.676 203.349 460.52C202.558 461.363 202.162 462.365 202.162 463.525C202.162 464.703 202.408 465.688 202.9 466.479C203.41 467.27 204.333 468.025 205.669 468.746C205.81 468.816 206.135 468.992 206.645 469.273C207.154 469.555 207.717 469.871 208.332 470.223C208.965 470.557 209.536 470.864 210.046 471.146C210.556 471.409 210.863 471.567 210.969 471.62C212.762 472.622 214.177 473.853 215.214 475.312C216.269 476.771 216.796 478.563 216.796 480.69C216.796 482.747 216.321 484.593 215.372 486.228C214.405 487.862 213.122 489.154 211.522 490.104C209.923 491.053 208.147 491.527 206.196 491.527ZM252.233 491H234.778C234.638 491 234.567 490.912 234.567 490.736L234.62 453.69C234.62 453.515 234.708 453.427 234.884 453.427H240.896C241.071 453.427 241.159 453.515 241.159 453.69L241.106 484.355H252.233C252.409 484.355 252.497 484.443 252.497 484.619V490.736C252.497 490.912 252.409 491 252.233 491ZM262.411 491H256.294C256.118 491 256.03 490.912 256.03 490.736L256.083 453.638C256.083 453.497 256.153 453.427 256.294 453.427H262.358C262.499 453.427 262.569 453.497 262.569 453.638L262.622 490.736C262.622 490.912 262.552 491 262.411 491ZM279.972 491H273.433C273.274 491 273.187 490.912 273.169 490.736L265.707 453.638C265.672 453.497 265.742 453.427 265.918 453.427H272.035C272.176 453.427 272.264 453.497 272.299 453.638L276.729 478.37L281.053 453.638C281.088 453.497 281.176 453.427 281.316 453.427H287.354C287.548 453.427 287.618 453.497 287.565 453.638L280.235 490.736C280.218 490.912 280.13 491 279.972 491ZM308.396 491H290.94C290.8 491 290.729 490.912 290.729 490.736L290.782 453.638C290.782 453.497 290.853 453.427 290.993 453.427H308.343C308.483 453.427 308.554 453.515 308.554 453.69V459.729C308.554 459.869 308.483 459.939 308.343 459.939H297.269V468.377H308.343C308.483 468.377 308.554 468.447 308.554 468.588L308.606 474.705C308.606 474.846 308.536 474.916 308.396 474.916H297.269V484.355H308.396C308.536 484.355 308.606 484.443 308.606 484.619V490.789C308.606 490.93 308.536 491 308.396 491ZM322.581 491.527C320.665 491.527 318.898 491.035 317.281 490.051C315.682 489.066 314.398 487.757 313.432 486.122C312.482 484.47 312.008 482.659 312.008 480.69V478.212C312.008 478.019 312.096 477.922 312.271 477.922H318.336C318.477 477.922 318.547 478.019 318.547 478.212V480.69C318.547 481.868 318.942 482.888 319.733 483.749C320.524 484.593 321.474 485.015 322.581 485.015C323.706 485.015 324.664 484.584 325.455 483.723C326.246 482.844 326.642 481.833 326.642 480.69C326.642 479.372 325.78 478.221 324.058 477.236C323.776 477.061 323.407 476.85 322.95 476.604C322.511 476.34 321.983 476.041 321.368 475.707C320.753 475.373 320.155 475.048 319.575 474.731C318.995 474.397 318.433 474.081 317.888 473.782C315.919 472.622 314.451 471.172 313.484 469.432C312.535 467.674 312.061 465.705 312.061 463.525C312.061 461.521 312.553 459.711 313.537 458.094C314.521 456.494 315.805 455.229 317.387 454.297C318.986 453.348 320.718 452.873 322.581 452.873C324.497 452.873 326.255 453.348 327.854 454.297C329.454 455.264 330.729 456.547 331.678 458.146C332.645 459.746 333.128 461.539 333.128 463.525V467.955C333.128 468.096 333.058 468.166 332.917 468.166H326.853C326.712 468.166 326.642 468.096 326.642 467.955L326.589 463.525C326.589 462.26 326.193 461.231 325.402 460.44C324.611 459.649 323.671 459.254 322.581 459.254C321.474 459.254 320.524 459.676 319.733 460.52C318.942 461.363 318.547 462.365 318.547 463.525C318.547 464.703 318.793 465.688 319.285 466.479C319.795 467.27 320.718 468.025 322.054 468.746C322.194 468.816 322.52 468.992 323.029 469.273C323.539 469.555 324.102 469.871 324.717 470.223C325.35 470.557 325.921 470.864 326.431 471.146C326.94 471.409 327.248 471.567 327.354 471.62C329.146 472.622 330.562 473.853 331.599 475.312C332.653 476.771 333.181 478.563 333.181 480.69C333.181 482.747 332.706 484.593 331.757 486.228C330.79 487.862 329.507 489.154 327.907 490.104C326.308 491.053 324.532 491.527 322.581 491.527Z" fill="black"/>
<path d="M49.3115 546.527C47.3955 546.527 45.6289 546.035 44.0117 545.051C42.4121 544.066 41.1289 542.757 40.1621 541.122C39.2129 539.47 38.7383 537.659 38.7383 535.69V533.212C38.7383 533.019 38.8262 532.922 39.002 532.922H45.0664C45.207 532.922 45.2773 533.019 45.2773 533.212V535.69C45.2773 536.868 45.6729 537.888 46.4639 538.749C47.2549 539.593 48.2041 540.015 49.3115 540.015C50.4365 540.015 51.3945 539.584 52.1855 538.723C52.9766 537.844 53.3721 536.833 53.3721 535.69C53.3721 534.372 52.5107 533.221 50.7881 532.236C50.5068 532.061 50.1377 531.85 49.6807 531.604C49.2412 531.34 48.7139 531.041 48.0986 530.707C47.4834 530.373 46.8857 530.048 46.3057 529.731C45.7256 529.397 45.1631 529.081 44.6182 528.782C42.6494 527.622 41.1816 526.172 40.2148 524.432C39.2656 522.674 38.791 520.705 38.791 518.525C38.791 516.521 39.2832 514.711 40.2676 513.094C41.252 511.494 42.5352 510.229 44.1172 509.297C45.7168 508.348 47.4482 507.873 49.3115 507.873C51.2275 507.873 52.9854 508.348 54.585 509.297C56.1846 510.264 57.459 511.547 58.4082 513.146C59.375 514.746 59.8584 516.539 59.8584 518.525V522.955C59.8584 523.096 59.7881 523.166 59.6475 523.166H53.583C53.4424 523.166 53.3721 523.096 53.3721 522.955L53.3193 518.525C53.3193 517.26 52.9238 516.231 52.1328 515.44C51.3418 514.649 50.4014 514.254 49.3115 514.254C48.2041 514.254 47.2549 514.676 46.4639 515.52C45.6729 516.363 45.2773 517.365 45.2773 518.525C45.2773 519.703 45.5234 520.688 46.0156 521.479C46.5254 522.27 47.4482 523.025 48.7842 523.746C48.9248 523.816 49.25 523.992 49.7598 524.273C50.2695 524.555 50.832 524.871 51.4473 525.223C52.0801 525.557 52.6514 525.864 53.1611 526.146C53.6709 526.409 53.9785 526.567 54.084 526.62C55.877 527.622 57.292 528.853 58.3291 530.312C59.3838 531.771 59.9111 533.563 59.9111 535.69C59.9111 537.747 59.4365 539.593 58.4873 541.228C57.5205 542.862 56.2373 544.154 54.6377 545.104C53.0381 546.053 51.2627 546.527 49.3115 546.527ZM70.0361 546H63.9189C63.7432 546 63.6553 545.912 63.6553 545.736L63.708 508.638C63.708 508.497 63.7783 508.427 63.9189 508.427H69.9834C70.124 508.427 70.1943 508.497 70.1943 508.638L70.2471 545.736C70.2471 545.912 70.1768 546 70.0361 546ZM81.3213 546H75.2041C75.0635 546 74.9932 545.912 74.9932 545.736L75.0986 508.638C75.0986 508.497 75.1689 508.427 75.3096 508.427H81.9014C82.042 508.427 82.165 508.497 82.2705 508.638L87.2012 515.757L92.1055 508.638C92.2109 508.497 92.3428 508.427 92.501 508.427H99.1191C99.2773 508.427 99.3564 508.497 99.3564 508.638L99.4619 545.736C99.4619 545.912 99.3916 546 99.251 546H93.1338C92.9932 546 92.9229 545.912 92.9229 545.736L92.8701 518.183L87.2012 526.409L81.585 518.183L81.5322 545.736C81.5322 545.912 81.4619 546 81.3213 546ZM110.325 546H104.261C104.085 546 103.997 545.912 103.997 545.736L104.103 508.638C104.103 508.497 104.173 508.427 104.313 508.427H114.702C118.007 508.427 120.617 509.438 122.533 511.459C124.467 513.463 125.434 516.196 125.434 519.659C125.434 522.19 124.933 524.396 123.931 526.277C122.911 528.141 121.593 529.582 119.976 530.602C118.358 531.621 116.601 532.131 114.702 532.131H110.589V545.736C110.589 545.912 110.501 546 110.325 546ZM114.702 514.834L110.589 514.887V525.592H114.702C115.845 525.592 116.838 525.047 117.682 523.957C118.525 522.85 118.947 521.417 118.947 519.659C118.947 518.253 118.569 517.102 117.813 516.205C117.058 515.291 116.021 514.834 114.702 514.834ZM146.765 546H129.31C129.169 546 129.099 545.912 129.099 545.736L129.151 508.69C129.151 508.515 129.239 508.427 129.415 508.427H135.427C135.603 508.427 135.69 508.515 135.69 508.69L135.638 539.355H146.765C146.94 539.355 147.028 539.443 147.028 539.619V545.736C147.028 545.912 146.94 546 146.765 546ZM168.228 546H150.772C150.632 546 150.562 545.912 150.562 545.736L150.614 508.638C150.614 508.497 150.685 508.427 150.825 508.427H168.175C168.315 508.427 168.386 508.515 168.386 508.69V514.729C168.386 514.869 168.315 514.939 168.175 514.939H157.101V523.377H168.175C168.315 523.377 168.386 523.447 168.386 523.588L168.438 529.705C168.438 529.846 168.368 529.916 168.228 529.916H157.101V539.355H168.228C168.368 539.355 168.438 539.443 168.438 539.619V545.789C168.438 545.93 168.368 546 168.228 546ZM179.565 546H173.448C173.308 546 173.237 545.93 173.237 545.789V539.672C173.237 539.531 173.308 539.461 173.448 539.461H179.565C179.706 539.461 179.776 539.531 179.776 539.672V545.789C179.776 545.93 179.706 546 179.565 546Z" fill="#61FFC6"/>
<path d="M38 161.678L67.6775 132L77.57 141.893L57.785 161.678L77.57 181.463L67.6775 191.355L38 161.678Z" fill="url(#paint0_linear_16_3)"/>
<path d="M77.57 161.678L47.8925 132L38 141.893L57.785 161.678L38 181.463L47.8925 191.355L77.57 161.678Z" fill="url(#paint1_linear_16_3)"/>
<defs>
<filter id="filter0_d_16_3" x="0" y="0" width="447" height="836" filterUnits="userSpaceOnUse" color-interpolation-filters="sRGB">
<feFlood flood-opacity="0" result="BackgroundImageFix"/>
<feColorMatrix in="SourceAlpha" type="matrix" values="0 0 0 0 0 0 0 0 0 0 0 0 0 0 0 0 0 0 127 0" result="hardAlpha"/>
<feOffset dx="30" dy="28"/>
<feGaussianBlur stdDeviation="15"/>
<feColorMatrix type="matrix" values="0 0 0 0 0.2 0 0 0 0 0.2 0 0 0 0 0.2 0 0 0 0.1 0"/>
<feBlend mode="multiply" in2="BackgroundImageFix" result="effect1_dropShadow_16_3"/>
<feBlend mode="normal" in="SourceGraphic" in2="effect1_dropShadow_16_3" result="shape"/>
</filter>
<filter id="filter1_ii_16_3" x="6" y="1" width="376" height="778" filterUnits="userSpaceOnUse" color-interpolation-filters="sRGB">
<feFlood flood-opacity="0" result="BackgroundImageFix"/>
<feBlend mode="normal" in="SourceGraphic" in2="BackgroundImageFix" result="shape"/>
<feColorMatrix in="SourceAlpha" type="matrix" values="0 0 0 0 0 0 0 0 0 0 0 0 0 0 0 0 0 0 127 0" result="hardAlpha"/>
<feOffset dy="1"/>
<feGaussianBlur stdDeviation="2"/>
<feComposite in2="hardAlpha" operator="arithmetic" k2="-1" k3="1"/>
<feColorMatrix type="matrix" values="0 0 0 0 1 0 0 0 0 1 0 0 0 0 1 0 0 0 0.2 0"/>
<feBlend mode="normal" in2="shape" result="effect1_innerShadow_16_3"/>
<feColorMatrix in="SourceAlpha" type="matrix" values="0 0 0 0 0 0 0 0 0 0 0 0 0 0 0 0 0 0 127 0" result="hardAlpha"/>
<feOffset dy="-1"/>
<feGaussianBlur stdDeviation="2"/>
<feComposite in2="hardAlpha" operator="arithmetic" k2="-1" k3="1"/>
<feColorMatrix type="matrix" values="0 0 0 0 1 0 0 0 0 1 0 0 0 0 1 0 0 0 0.6 0"/>
<feBlend mode="normal" in2="effect1_innerShadow_16_3" result="effect2_innerShadow_16_3"/>
</filter>
<filter id="filter2_d_16_3" x="34" y="586" width="188" height="58" filterUnits="userSpaceOnUse" color-interpolation-filters="sRGB">
<feFlood flood-opacity="0" result="BackgroundImageFix"/>
<feColorMatrix in="SourceAlpha" type="matrix" values="0 0 0 0 0 0 0 0 0 0 0 0 0 0 0 0 0 0 127 0" result="hardAlpha"/>
<feOffset dy="4"/>
<feGaussianBlur stdDeviation="2"/>
<feComposite in2="hardAlpha" operator="out"/>
<feColorMatrix type="matrix" values="0 0 0 0 0 0 0 0 0 0 0 0 0 0 0 0 0 0 0.18 0"/>
<feBlend mode="normal" in2="BackgroundImageFix" result="effect1_dropShadow_16_3"/>
<feBlend mode="normal" in="SourceGraphic" in2="effect1_dropShadow_16_3" result="shape"/>
</filter>
<linearGradient id="paint0_linear_16_3" x1="57.785" y1="132" x2="57.785" y2="191.355" gradientUnits="userSpaceOnUse">
<stop stop-color="#61FFC6"/>
<stop offset="1" stop-color="#61FFC6"/>
</linearGradient>
<linearGradient id="paint1_linear_16_3" x1="57.785" y1="132" x2="57.785" y2="191.355" gradientUnits="userSpaceOnUse">
<stop stop-color="#61FFC6"/>
<stop offset="1" stop-color="#61FFC6"/>
</linearGradient>
</defs>
</svg>
